<?xml version="1.0" encoding="UTF-8"?>
<svg id="Layer_1" data-name="Layer 1" xmlns="http://www.w3.org/2000/svg" viewBox="0 0 165.72 43.55">
  <defs>
    <style>
      .cls-1 {
        fill: #1bc485;
      }

      .cls-2 {
        fill: none;
        stroke: #1bc485;
        stroke-miterlimit: 10;
        stroke-width: 4.54px;
      }
    </style>
  </defs>
  <path class="cls-1" d="M3.41,7.69h14.19v5.95h-6.2c-1.09,0-1.6.62-1.6,1.81s.55,1.85,1.56,1.85h5.01v5.99h-4.97c-1.13,0-1.67.62-1.67,1.89v7.87H3.41V7.69Z"/>
  <path class="cls-1" d="M34.73,31.27c-3.38,2.79-9.11,3.52-12.48-.33-4.86-5.4-2.03-15.78,5.91-15.82,2.54,0,3.77.8,4.75,1.81v-1.27h6.13v12.04h1.31v5.48h-1.6c-1.56,0-3.05-.69-4.03-1.92ZM29.5,27.31h.22c2.21,0,3.23-1.02,3.23-3.05s-1.05-3.12-3.19-3.12h-.22c-2.21,0-3.23,1.02-3.23,3.05s1.05,3.12,3.19,3.12Z"/>
  <path class="cls-1" d="M44.17,15.67h6.17v2.21c1.7-2.47,4.35-2.47,5.22-2.47v5.62h-1.49c-2.5,0-3.74,1.49-3.74,4.53v7.47h-6.17V15.67Z"/>
  <path class="cls-1" d="M58.95,15.67h6.13v1.74c1.6-1.45,3.01-2.03,4.97-2.03,2.43,0,4.14.91,5.44,2.94,1.31-1.96,3.12-2.94,5.44-2.94,2,0,3.77.87,4.75,2.39.65.98.94,2.25.94,4.03v11.25h-6.17v-10.59c0-1.45-.73-2.14-2.25-2.14h-.14c-1.56,0-2.25.65-2.25,2.1v10.63h-6.13v-10.59c0-1.42-.73-2.14-2.21-2.14h-.15c-1.56,0-2.25.62-2.25,2.1v10.63h-6.13V15.67Z"/>
  <path class="cls-1" d="M90.75,31.78v-6.13c1.75.61,4.64,2.21,6.89,2.21,1.63,0,2.65-.8,2.65-2.14,0-1.05-1.09-1.96-3.3-2.72-2.72-.98-6.57-2.68-6.57-7.66s3.63-8.13,8.78-8.13c3.77,0,7.22,1.82,7.22,1.82v6.13c-1.98-.69-4.61-2.14-6.82-2.14-1.31,0-2.21.73-2.21,1.82,0,1.49,2.03,2.03,4.14,2.83,3.88,1.42,5.77,3.88,5.73,7.47,0,3.19-2.14,8.63-9.29,8.63-3.66,0-7.22-2-7.22-2Z"/>
  <path class="cls-1" d="M111.15,15.67h6.13v17.38h-6.13V15.67Z"/>
  <path class="cls-1" d="M122.98,35.73l5.44-2.1c.36,1.2,1.31,1.81,2.87,1.89h.18c3.05,0,3.05-2.18,3.05-3.52,0,0-1.6.91-4.28.91-.43,0-9.5-.11-9.5-8.89,0-2.65,1.16-8.82,9.5-8.82,2.5,0,3.99.91,4.93,1.85v-1.38h5.37v16.8c0,5.04-3.77,7.84-9.11,7.84-3.88,0-7.11-1.6-8.45-4.57ZM130.6,27.13h.22c2.21,0,3.23-1.01,3.23-3.05s-1.05-3.16-3.19-3.16h-.22c-2.21,0-3.23,1.05-3.23,3.08s1.05,3.12,3.19,3.12Z"/>
  <path class="cls-1" d="M144.98,15.67h6.13v1.74c2.9-3.52,11.28-3.19,11.28,4.64v10.99h-6.13v-10.12c0-1.63-.83-2.43-2.5-2.43h-.14c-1.7,0-2.5.76-2.5,2.36v10.19h-6.13V15.67Z"/>
  <polyline class="cls-2" points="109.52 5.76 114.21 10.69 121.33 3.93"/>
</svg>
